<?xml version="1.0" encoding="UTF-8"?><svg xmlns="http://www.w3.org/2000/svg" xmlns:xlink="http://www.w3.org/1999/xlink" height="500.0" preserveAspectRatio="xMidYMid meet" version="1.0" viewBox="-3.7 0.0 175.6 500.0" width="175.6" zoomAndPan="magnify"><defs><clipPath id="a"><path d="M 8 0 L 171.960938 0 L 171.960938 500 L 8 500 Z M 8 0"/></clipPath></defs><g><g id="change1_1"><path d="M 110.300781 124.015625 L 127.886719 325.730469 L 113.570312 338.777344 L 111.75 322.605469 L 77.121094 301.171875 L 77.128906 302.253906 L 77.769531 363.878906 L 58.445312 359.109375 L 38.082031 354.085938 L 8.59375 346.808594 C 8.59375 346.808594 10.003906 258.421875 8.59375 185.257812 C 7.601562 133.90625 -3.671875 86.878906 1.230469 67.066406 C 6.699219 44.960938 35.148438 40.175781 35.148438 40.175781 L 35.1875 40.222656 C 35.675781 40.03125 37.449219 39.40625 40.296875 39.003906 L 67.144531 44.992188 C 67.359375 44.792969 67.542969 44.507812 67.707031 44.15625 C 68.074219 44.335938 68.441406 44.503906 68.8125 44.691406 L 99.828125 61.433594 L 127.886719 95.242188 L 126.789062 96.050781 C 126.757812 96.015625 126.734375 95.988281 126.734375 95.988281 L 126.714844 95.992188 L 126.789062 96.050781 L 110.300781 124.015625" fill="#e9eaf7"/></g><g id="change2_1"><path d="M 100.972656 226.996094 L 91.871094 283.660156 L 94.707031 312.585938 L 111.75 322.605469 Z M 64.714844 46.613281 L 67.539062 53.160156 C 67.539062 53.160156 65.574219 62.980469 59.339844 62.417969 C 53.109375 61.855469 46.257812 53.421875 46.257812 53.421875 L 39.960938 45.914062 C 40.007812 45.773438 40.035156 45.621094 40.097656 45.492188 L 40.296875 39.003906 L 40.53125 31.246094 C 40.808594 31.171875 41.066406 31.070312 41.316406 30.945312 C 41.492188 32.585938 41.769531 34.0625 42.109375 35.40625 L 41.316406 30.945312 L 64.871094 41.101562 L 64.863281 45.96875 C 64.871094 46.230469 64.875 46.480469 64.871094 46.710938 L 64.714844 46.613281" fill="#e24e34"/></g><g id="change3_1"><path d="M 68.128906 216.375 L 39.527344 216.375 C 39.503906 216.527344 39.472656 216.699219 39.441406 216.898438 C 39.414062 217.066406 39.386719 217.230469 39.355469 217.425781 L 68.128906 217.425781 C 68.417969 217.425781 68.652344 217.191406 68.652344 216.898438 C 68.652344 216.609375 68.417969 216.375 68.128906 216.375 Z M 27.632812 216.898438 C 27.632812 217.191406 27.867188 217.425781 28.15625 217.425781 L 37.757812 217.425781 C 37.789062 217.238281 37.816406 217.0625 37.839844 216.898438 C 37.871094 216.714844 37.902344 216.527344 37.925781 216.375 L 28.15625 216.375 C 27.867188 216.375 27.632812 216.609375 27.632812 216.898438 Z M 132.773438 106.167969 C 131.796875 102.261719 127.296875 96.675781 126.789062 96.050781 C 126.757812 96.015625 126.734375 95.988281 126.734375 95.988281 L 115.144531 96.332031 C 115.128906 96.3125 115.121094 96.289062 115.097656 96.273438 C 115.101562 96.285156 115.105469 96.292969 115.109375 96.304688 C 115.09375 96.257812 115.070312 96.214844 115.039062 96.179688 C 115.554688 95.917969 116.964844 95.101562 117.507812 93.699219 C 118.179688 91.980469 116.601562 91.597656 116.601562 91.597656 C 118.464844 89.355469 115.597656 87.585938 115.597656 87.585938 L 114.644531 88.253906 C 115.167969 86.632812 113.304688 85.867188 113.304688 85.867188 L 109.867188 88.113281 C 111.058594 85.769531 108.625 85.054688 108.625 85.054688 L 102.84375 90.976562 L 99.425781 96.796875 L 90.570312 97.058594 L 86.339844 97.183594 L 78.960938 97.402344 L 74.867188 94.878906 L 64.179688 88.300781 L 54.171875 84.835938 L 44.703125 80.269531 C 44.703125 80.269531 42.960938 81.714844 45.195312 83.011719 C 47.433594 84.308594 49.160156 86.660156 49.160156 86.660156 L 43.820312 87.253906 C 42.316406 87.421875 41.910156 89.5 43.285156 90.132812 C 43.613281 90.28125 44.023438 90.398438 44.535156 90.460938 L 46.886719 90.628906 L 43.578125 92.046875 C 43.578125 92.046875 42.574219 94.414062 45.617188 94.304688 C 48.660156 94.1875 52.734375 94.46875 52.734375 94.46875 L 49.714844 95.273438 C 49.714844 95.273438 49.765625 96.652344 50.871094 96.953125 C 51.976562 97.261719 58.976562 98.464844 58.976562 98.464844 C 58.976562 98.464844 59.152344 98.6875 59.464844 99.035156 L 40.035156 117.445312 C 40.035156 117.445312 59.628906 129.046875 75.371094 132.527344 C 77.351562 132.964844 79.269531 133.28125 81.082031 133.421875 C 84.117188 133.660156 87.253906 133.335938 90.335938 132.65625 C 92.023438 132.28125 93.691406 131.800781 95.324219 131.25 C 101.132812 129.28125 106.476562 126.382812 110.300781 124.015625 C 113.167969 122.246094 115.175781 120.785156 115.90625 120.238281 L 118.6875 121.117188 C 125.84375 123.066406 134.574219 113.363281 132.773438 106.167969 Z M 39.84375 31.394531 C 37.367188 31.679688 35.128906 29.898438 34.847656 27.421875 C 34.605469 25.320312 35.859375 23.402344 37.757812 22.691406 C 38.09375 22.566406 38.445312 22.46875 38.820312 22.425781 C 39.261719 22.375 39.6875 22.410156 40.105469 22.480469 C 40.339844 22.523438 40.570312 22.574219 40.792969 22.652344 C 42.3125 23.175781 43.484375 24.488281 43.765625 26.160156 C 44.246094 25.136719 44.128906 21.640625 43.964844 20.933594 C 43.46875 18.828125 43.503906 16.113281 43.785156 13.460938 C 43.871094 12.644531 43.972656 11.828125 44.101562 11.042969 C 45.671875 10.960938 53.335938 10.546875 60.128906 10 C 61.90625 9.855469 63.613281 9.703125 65.144531 9.546875 C 66.117188 11.25 66.972656 13.390625 66.839844 15.519531 C 66.777344 16.523438 66.8125 17.414062 66.902344 18.253906 C 67.195312 20.964844 68.089844 23.136719 68.433594 26.722656 C 68.742188 30.003906 69.371094 40.597656 67.707031 44.15625 C 67.542969 44.507812 67.359375 44.792969 67.144531 44.992188 C 66.71875 45.398438 65.90625 45.71875 64.863281 45.96875 C 60.140625 47.105469 50.566406 46.839844 49.277344 46.453125 C 48.164062 46.117188 45.207031 43.824219 43.167969 38.714844 C 42.332031 36.617188 41.648438 34.058594 41.316406 30.945312 C 41.066406 31.070312 40.808594 31.171875 40.53125 31.246094 C 40.308594 31.308594 40.082031 31.367188 39.84375 31.394531" fill="#f35f43"/></g><g id="change4_1"><path d="M 86.339844 97.183594 L 84.875 84.203125 L 75.238281 60.503906 L 71.238281 50.664062 L 64.871094 46.710938 L 64.714844 46.613281 C 64.714844 46.613281 66.992188 61.910156 53.878906 56.617188 C 51.128906 55.511719 48.585938 54.433594 46.257812 53.421875 L 50.976562 59.046875 L 52.675781 61.074219 L 68.410156 79.832031 C 72 84.109375 74.226562 89.347656 74.867188 94.878906 L 78.960938 97.402344 Z M 96.058594 183.414062 L 90.335938 132.65625 C 87.253906 133.335938 84.117188 133.660156 81.082031 133.421875 C 79.269531 133.28125 77.351562 132.964844 75.371094 132.527344 L 75.785156 172.582031 L 76.097656 202.582031 L 76.109375 203.734375 L 76.117188 204.324219 L 87.371094 202.980469 L 98.121094 201.691406 L 98.058594 201.164062 Z M 133.382812 467.671875 L 125.234375 435.046875 L 121.574219 437.066406 L 120.632812 437.585938 L 115.867188 440.214844 L 114.933594 440.730469 L 109.554688 443.695312 L 109.242188 443.871094 L 109.847656 443.535156 L 110.113281 443.390625 L 109.230469 443.875 L 104.449219 446.511719 L 104.449219 446.515625 L 103.519531 447.027344 L 101.15625 448.332031 L 116.148438 486.089844 L 118.289062 484.035156 L 119.109375 483.25 L 121.164062 481.277344 L 123.804688 478.742188 C 123.804688 478.742188 124.367188 476.21875 125.234375 472.992188 C 125.308594 472.722656 125.4375 472.464844 125.59375 472.214844 L 126.375 471.246094 C 127.40625 470.25 128.921875 469.429688 130.28125 468.824219 L 131.691406 468.246094 C 132.679688 467.875 133.382812 467.671875 133.382812 467.671875 Z M 68.226562 453.605469 L 43.914062 453.605469 L 47.109375 488.769531 L 60.691406 488.769531 L 60.617188 485.054688 L 60.691406 484.777344 L 61.609375 482.332031 C 62.320312 480.207031 63.601562 478.042969 65.890625 476.6875 L 66.941406 476.152344 C 67.316406 475.992188 67.707031 475.847656 68.128906 475.730469 L 68.972656 462.28125 L 69.515625 453.605469 Z M 43.90625 206.359375 C 43.757812 207 43.621094 207.625 43.492188 208.226562 C 43.324219 209.003906 43.171875 209.75 43.039062 210.441406 C 42.929688 210.257812 42.75 210.113281 42.523438 210.070312 C 42.34375 210.03125 42.171875 210.070312 42.019531 210.148438 C 42.125 209.605469 42.246094 209.003906 42.378906 208.359375 C 42.503906 207.757812 42.640625 207.117188 42.792969 206.453125 C 44.097656 200.675781 46.34375 192.867188 49.328125 190.640625 C 46.691406 190.128906 44.867188 190.3125 44.09375 190.449219 L 43.933594 189.40625 C 44.980469 189.222656 47.429688 189.003906 50.980469 189.941406 C 54.53125 189.003906 56.980469 189.222656 58.027344 189.40625 L 57.871094 190.449219 C 57.09375 190.3125 55.273438 190.132812 52.632812 190.640625 C 55.335938 192.65625 57.433594 199.242188 58.773438 204.757812 C 58.804688 204.886719 58.835938 205.015625 58.867188 205.140625 C 58.964844 205.554688 59.058594 205.957031 59.148438 206.355469 C 59.476562 207.796875 59.746094 209.113281 59.949219 210.191406 C 59.78125 210.074219 59.570312 210.027344 59.351562 210.070312 C 59.167969 210.105469 59.019531 210.214844 58.90625 210.351562 C 58.679688 209.175781 58.402344 207.863281 58.085938 206.480469 C 57.988281 206.070312 57.890625 205.648438 57.785156 205.230469 C 57.757812 205.117188 57.734375 205.003906 57.703125 204.894531 C 56.175781 198.703125 53.890625 191.878906 51.339844 191.128906 C 51.21875 191.09375 51.101562 191.0625 50.980469 191.03125 C 50.859375 191.0625 50.746094 191.09375 50.621094 191.128906 C 47.867188 191.9375 45.421875 199.835938 43.90625 206.359375" fill="#317956"/></g><g clip-path="url(#a)" id="change5_1"><path d="M 59.949219 210.191406 C 59.78125 210.074219 59.570312 210.027344 59.351562 210.070312 C 59.167969 210.105469 59.019531 210.214844 58.90625 210.351562 C 58.761719 210.527344 58.6875 210.757812 58.734375 211 C 58.746094 211.046875 59.226562 213.457031 59.503906 216.375 L 61.089844 216.375 C 60.820312 213.363281 60.324219 210.882812 60.28125 210.683594 C 60.238281 210.472656 60.117188 210.300781 59.949219 210.191406 Z M 64.011719 192.289062 L 64.4375 189.488281 C 64.53125 188.875 64.066406 188.316406 63.445312 188.292969 L 59.152344 188.144531 C 58.625 188.125 58.164062 188.503906 58.085938 189.027344 L 58.027344 189.40625 L 57.871094 190.449219 L 57.808594 190.84375 C 57.730469 191.367188 58.054688 191.863281 58.5625 192.003906 L 62.710938 193.136719 C 63.308594 193.300781 63.917969 192.90625 64.011719 192.289062 Z M 42.523438 210.070312 C 42.34375 210.03125 42.171875 210.070312 42.019531 210.148438 C 41.8125 210.253906 41.644531 210.4375 41.59375 210.683594 C 41.554688 210.882812 41.058594 213.363281 40.785156 216.375 L 42.375 216.375 C 42.652344 213.457031 43.128906 211.046875 43.140625 211 C 43.179688 210.796875 43.136719 210.601562 43.039062 210.441406 C 42.929688 210.257812 42.75 210.113281 42.523438 210.070312 Z M 44.152344 190.84375 L 44.09375 190.449219 L 43.933594 189.40625 L 43.875 189.027344 C 43.796875 188.503906 43.339844 188.125 42.8125 188.144531 L 38.515625 188.292969 C 37.894531 188.316406 37.429688 188.875 37.523438 189.488281 L 37.949219 192.289062 C 38.042969 192.90625 38.652344 193.300781 39.253906 193.136719 L 43.398438 192.003906 C 43.910156 191.863281 44.234375 191.367188 44.152344 190.84375 Z M 130.28125 468.824219 L 120.632812 437.585938 L 115.867188 440.214844 L 126.375 471.246094 C 127.40625 470.25 128.921875 469.429688 130.28125 468.824219 Z M 125.59375 472.214844 L 114.933594 440.730469 L 109.847656 443.535156 L 110.160156 443.363281 L 123.359375 479.167969 L 123.804688 478.742188 C 123.804688 478.742188 124.367188 476.21875 125.234375 472.992188 C 125.308594 472.722656 125.4375 472.464844 125.59375 472.214844 Z M 122.535156 479.964844 L 109.230469 443.875 L 104.449219 446.511719 L 119.109375 483.25 Z M 65.890625 453.605469 L 61.011719 453.605469 L 61.609375 482.332031 C 62.320312 480.207031 63.601562 478.042969 65.890625 476.6875 Z M 60.691406 488.769531 L 59.960938 453.605469 L 55.09375 453.605469 L 56.507812 488.769531 Z M 55.457031 488.769531 L 54.039062 453.605469 L 49.175781 453.605469 L 51.238281 488.769531 Z M 145.125 489.824219 C 144.703125 492.347656 134.632812 499.078125 127.886719 499.921875 C 121.140625 500.761719 118.476562 494.59375 118.476562 494.59375 L 115.519531 486.695312 L 116.148438 486.089844 L 118.289062 484.035156 L 103.519531 447.027344 L 101.15625 448.332031 L 91.59375 453.605469 C 91.59375 453.605469 86.511719 439.5625 79.269531 419.082031 L 75.367188 453.605469 L 66.941406 453.605469 L 66.941406 476.152344 C 67.316406 475.992188 67.707031 475.847656 68.128906 475.730469 C 68.128906 475.730469 74.800781 482.269531 83.132812 486.089844 C 94.847656 491.460938 106.554688 494.6875 107.101562 495.011719 C 108.125 495.617188 108.882812 497.023438 109.359375 498.1875 C 109.714844 499.054688 109.085938 500 108.152344 500 L 68.941406 500 L 60.554688 495.714844 L 60.554688 500 L 46.789062 500 L 46.078125 488.769531 L 50.183594 488.769531 L 48.125 453.605469 L 43.847656 453.605469 C 43.847656 453.605469 40.53125 403.675781 38.082031 354.085938 L 58.445312 359.109375 L 77.769531 363.878906 L 77.128906 302.253906 L 76.117188 204.324219 L 87.371094 202.980469 L 98.121094 201.691406 L 100.972656 226.996094 L 93.679688 291.546875 L 98.839844 315.015625 L 125.234375 435.046875 L 121.574219 437.066406 L 131.257812 468.417969 C 132.46875 467.9375 133.382812 467.671875 133.382812 467.671875 C 133.382812 467.671875 161.113281 462.894531 170.367188 462.054688 C 179.625 461.210938 145.542969 487.296875 145.125 489.824219 Z M 40.246094 259.65625 C 40.246094 258.351562 39.328125 257.261719 38.105469 256.992188 C 38.074219 259.054688 38.042969 260.3125 38.042969 260.347656 C 38.03125 260.777344 37.679688 261.117188 37.253906 261.117188 C 37.246094 261.117188 37.238281 261.117188 37.234375 261.117188 C 36.796875 261.105469 36.453125 260.746094 36.464844 260.308594 C 36.464844 260.277344 36.488281 259.390625 36.511719 257.894531 C 36.515625 257.648438 36.519531 257.394531 36.523438 257.117188 C 35.503906 257.511719 34.78125 258.496094 34.78125 259.65625 C 34.78125 260.585938 35.25 261.40625 35.960938 261.902344 C 36.402344 262.207031 36.933594 262.386719 37.511719 262.386719 C 39.023438 262.386719 40.246094 261.164062 40.246094 259.65625 Z M 37.511719 265.882812 C 36.882812 265.882812 36.285156 265.753906 35.722656 265.554688 C 33.632812 264.816406 32.125 262.839844 32.125 260.492188 C 32.125 257.847656 34.035156 255.65625 36.550781 255.199219 C 36.566406 253.769531 36.582031 252.105469 36.589844 250.277344 C 36.605469 246.277344 36.582031 241.527344 36.464844 236.871094 C 36.25 228.488281 37.214844 220.933594 37.757812 217.425781 C 37.789062 217.238281 37.816406 217.0625 37.839844 216.898438 C 37.871094 216.714844 37.902344 216.527344 37.925781 216.375 C 38.035156 215.726562 38.105469 215.363281 38.109375 215.347656 C 38.195312 214.917969 38.609375 214.640625 39.035156 214.722656 C 39.464844 214.808594 39.742188 215.222656 39.660156 215.648438 C 39.65625 215.664062 39.605469 215.933594 39.527344 216.375 C 39.503906 216.527344 39.472656 216.699219 39.441406 216.898438 C 39.414062 217.066406 39.386719 217.230469 39.355469 217.425781 C 38.828125 220.757812 37.824219 228.371094 38.042969 236.828125 C 38.15625 241.230469 38.179688 245.714844 38.171875 249.574219 C 38.171875 249.808594 38.167969 250.046875 38.167969 250.277344 C 38.160156 252.085938 38.148438 253.742188 38.128906 255.164062 C 40.8125 255.476562 42.902344 257.726562 42.902344 260.492188 C 42.902344 263.46875 40.488281 265.882812 37.511719 265.882812 Z M 47.398438 90.425781 C 47.382812 90.714844 47.605469 90.964844 47.894531 90.980469 L 58.601562 91.542969 C 58.613281 91.542969 58.621094 91.542969 58.628906 91.542969 C 58.910156 91.542969 59.140625 91.324219 59.15625 91.046875 C 59.171875 90.753906 58.949219 90.507812 58.65625 90.492188 L 47.953125 89.929688 C 47.660156 89.921875 47.414062 90.136719 47.398438 90.425781 Z M 53.878906 94.8125 L 59.851562 95.035156 C 59.855469 95.035156 59.863281 95.035156 59.871094 95.035156 C 60.152344 95.035156 60.386719 94.8125 60.394531 94.53125 C 60.40625 94.238281 60.179688 93.996094 59.890625 93.984375 L 53.917969 93.761719 C 53.652344 93.730469 53.382812 93.976562 53.371094 94.265625 C 53.359375 94.554688 53.585938 94.800781 53.878906 94.8125 Z M 15.804688 55.59375 C 17.195312 55.59375 18.796875 56.101562 20.515625 56.953125 C 30.453125 61.886719 44.3125 78.644531 44.472656 78.839844 C 44.578125 78.96875 44.730469 79.03125 44.882812 79.03125 C 45 79.03125 45.117188 78.992188 45.214844 78.914062 C 45.441406 78.730469 45.472656 78.398438 45.289062 78.171875 C 44.625 77.367188 31.382812 61.363281 21.257812 56.164062 C 19.28125 55.148438 17.425781 54.539062 15.804688 54.539062 C 15.515625 54.539062 15.277344 54.773438 15.277344 55.066406 C 15.277344 55.355469 15.515625 55.59375 15.804688 55.59375 Z M 53.316406 17.914062 C 52.261719 17.527344 50.585938 17.285156 48.578125 18.339844 C 48.320312 18.476562 48.222656 18.792969 48.355469 19.050781 C 48.492188 19.308594 48.808594 19.402344 49.066406 19.269531 C 51.816406 17.820312 53.777344 19.304688 53.855469 19.367188 C 53.953125 19.441406 54.070312 19.480469 54.183594 19.480469 C 54.339844 19.480469 54.492188 19.410156 54.59375 19.28125 C 54.628906 19.238281 54.644531 19.191406 54.664062 19.148438 C 54.75 18.9375 54.695312 18.691406 54.511719 18.542969 C 54.46875 18.507812 54.035156 18.179688 53.316406 17.914062 Z M 33.78125 123.042969 C 33.90625 123.042969 34.027344 123 34.125 122.914062 L 39.535156 118.179688 C 39.753906 117.988281 39.777344 117.65625 39.585938 117.4375 C 39.394531 117.21875 39.0625 117.195312 38.84375 117.386719 L 33.730469 121.863281 C 18.253906 112.15625 12.121094 108.734375 12.058594 108.703125 C 11.808594 108.5625 11.484375 108.648438 11.34375 108.90625 C 11.203125 109.160156 11.292969 109.480469 11.546875 109.621094 C 11.578125 109.636719 13.214844 110.550781 16.902344 112.753906 C 12.097656 113.351562 8.34375 118.089844 8.179688 118.304688 C 8 118.53125 8.039062 118.863281 8.269531 119.042969 C 8.492188 119.21875 8.828125 119.179688 9.007812 118.953125 C 9.046875 118.898438 13.128906 113.746094 17.890625 113.746094 C 18.042969 113.746094 18.179688 113.679688 18.277344 113.578125 C 21.777344 115.683594 26.765625 118.734375 33.5 122.960938 C 33.585938 123.015625 33.683594 123.042969 33.78125 123.042969 Z M 37.757812 22.691406 C 38.09375 22.566406 38.445312 22.46875 38.820312 22.425781 C 39.261719 22.375 39.6875 22.410156 40.105469 22.480469 C 40.339844 22.523438 40.570312 22.574219 40.792969 22.652344 C 42.3125 23.175781 43.484375 24.488281 43.765625 26.160156 C 44.246094 25.136719 44.128906 21.640625 43.964844 20.933594 C 43.46875 18.828125 43.503906 16.113281 43.785156 13.460938 C 43.871094 12.644531 43.972656 11.828125 44.101562 11.042969 C 45.671875 10.960938 53.335938 10.546875 60.128906 10 C 61.90625 9.855469 63.613281 9.703125 65.144531 9.546875 C 66.117188 11.25 66.972656 13.390625 66.839844 15.519531 C 66.777344 16.523438 66.8125 17.414062 66.902344 18.253906 L 68.175781 16.152344 C 68.175781 16.152344 68.289062 12.3125 68.089844 9.203125 C 70.054688 8.9375 71.308594 8.660156 71.308594 8.394531 C 71.308594 7.140625 62.070312 0.578125 58.902344 0.140625 C 51.710938 -0.847656 39.613281 3.546875 38.363281 7.226562 L 36.300781 8.101562 C 35.472656 8.453125 35.003906 9.34375 35.1875 10.226562 Z M 61.085938 99.5 C 60.914062 99.265625 60.585938 99.210938 60.351562 99.378906 C 60.230469 99.46875 60.160156 99.597656 60.140625 99.734375 C 60.121094 99.863281 60.148438 100 60.230469 100.113281 C 60.363281 100.296875 63.550781 104.523438 75.09375 105.664062 C 75.316406 105.6875 75.523438 105.714844 75.757812 105.734375 L 76.667969 106.082031 L 87.824219 110.34375 L 92.671875 112.195312 L 103.234375 116.230469 L 109.84375 118.753906 L 114.34375 120.472656 C 114.402344 120.496094 114.46875 120.507812 114.53125 120.507812 C 114.742188 120.507812 114.941406 120.378906 115.019531 120.167969 C 115.046875 120.101562 115.054688 120.035156 115.054688 119.96875 C 115.050781 119.761719 114.921875 119.566406 114.71875 119.488281 L 109.742188 117.589844 L 92.507812 111.007812 L 87.691406 109.167969 L 77.351562 105.21875 L 76.882812 105.039062 L 76.0625 104.726562 C 76.015625 104.707031 75.96875 104.695312 75.917969 104.691406 C 75.625 104.667969 75.363281 104.632812 75.082031 104.605469 C 64.179688 103.5 61.113281 99.539062 61.085938 99.5 Z M 65.964844 18.179688 C 66.148438 17.953125 66.109375 17.621094 65.878906 17.441406 C 65.808594 17.382812 64.523438 16.398438 62.5625 16.492188 C 61.785156 16.53125 60.90625 16.734375 59.949219 17.238281 C 59.691406 17.375 59.59375 17.691406 59.726562 17.949219 C 59.863281 18.207031 60.183594 18.304688 60.4375 18.167969 C 61.375 17.675781 62.21875 17.523438 62.929688 17.539062 C 64.300781 17.570312 65.171875 18.222656 65.226562 18.265625 C 65.324219 18.339844 65.4375 18.378906 65.554688 18.378906 C 65.707031 18.378906 65.863281 18.308594 65.964844 18.179688 Z M 100.089844 96.351562 C 99.835938 96.355469 99.636719 96.546875 99.59375 96.789062 C 99.589844 96.824219 99.578125 96.855469 99.578125 96.890625 C 99.578125 96.921875 99.59375 96.953125 99.597656 96.984375 C 99.648438 97.222656 99.851562 97.402344 100.105469 97.402344 C 100.109375 97.402344 100.113281 97.402344 100.117188 97.402344 L 114.65625 97.066406 C 114.945312 97.058594 115.175781 96.816406 115.167969 96.527344 C 115.167969 96.457031 115.152344 96.390625 115.125 96.332031 C 115.101562 96.277344 115.0625 96.230469 115.023438 96.1875 C 114.925781 96.089844 114.785156 96.023438 114.628906 96.011719 L 112.597656 96.058594 L 116.027344 92.628906 C 116.234375 92.421875 116.234375 92.089844 116.027344 91.886719 C 115.824219 91.679688 115.492188 91.679688 115.285156 91.886719 L 111.113281 96.054688 C 111.101562 96.066406 111.089844 96.082031 111.078125 96.097656 L 108.457031 96.15625 L 109.34375 93.796875 L 114.210938 89.261719 C 114.425781 89.0625 114.4375 88.730469 114.238281 88.515625 C 114.039062 88.304688 113.707031 88.292969 113.496094 88.492188 L 108.535156 93.113281 C 108.476562 93.167969 108.429688 93.234375 108.402344 93.3125 L 107.386719 96.015625 C 107.367188 96.070312 107.355469 96.128906 107.355469 96.183594 L 104.347656 96.253906 L 105.847656 92.226562 L 109.355469 89.160156 C 109.574219 88.96875 109.59375 88.636719 109.402344 88.417969 C 109.210938 88.195312 108.878906 88.175781 108.660156 88.367188 L 105.054688 91.523438 C 104.988281 91.578125 104.9375 91.652344 104.910156 91.734375 L 103.21875 96.277344 Z M 98.695312 74.644531 L 102.414062 88.503906 C 102.476562 88.738281 102.691406 88.894531 102.921875 88.894531 C 102.96875 88.894531 103.011719 88.890625 103.058594 88.878906 C 103.339844 88.800781 103.503906 88.511719 103.429688 88.230469 L 99.726562 74.425781 L 99.390625 67.046875 C 99.375 66.753906 99.175781 66.53125 98.839844 66.542969 C 98.550781 66.554688 98.324219 66.800781 98.339844 67.09375 L 98.675781 74.53125 C 98.679688 74.566406 98.683594 74.605469 98.695312 74.644531 Z M 64.242188 20.535156 C 64.128906 20.539062 64.023438 20.578125 63.921875 20.617188 C 63.511719 20.773438 63.226562 21.164062 63.246094 21.628906 C 63.273438 22.203125 63.761719 22.648438 64.339844 22.621094 C 64.914062 22.597656 65.359375 22.109375 65.335938 21.53125 C 65.328125 21.363281 65.273438 21.214844 65.195312 21.078125 C 65.007812 20.742188 64.652344 20.519531 64.242188 20.535156 Z M 54.882812 31.835938 C 54.695312 31.613281 54.363281 31.585938 54.140625 31.769531 C 53.917969 31.957031 53.890625 32.289062 54.078125 32.511719 C 54.171875 32.621094 56.277344 35.078125 60.0625 35.078125 C 60.304688 35.078125 60.554688 35.066406 60.8125 35.046875 C 61.101562 35.019531 61.316406 34.765625 61.292969 34.476562 C 61.269531 34.1875 61.007812 33.96875 60.726562 33.996094 C 57.054688 34.304688 54.96875 31.933594 54.882812 31.835938 Z M 49.894531 86.597656 C 49.820312 86.878906 49.988281 87.167969 50.269531 87.242188 L 57.03125 89.046875 C 57.074219 89.058594 57.121094 89.0625 57.164062 89.0625 C 57.398438 89.0625 57.613281 88.90625 57.675781 88.671875 C 57.75 88.390625 57.582031 88.105469 57.300781 88.027344 L 50.539062 86.226562 C 50.253906 86.148438 49.96875 86.320312 49.894531 86.597656 Z M 53.589844 22.0625 C 53.5625 21.488281 53.074219 21.039062 52.5 21.066406 C 51.921875 21.09375 51.476562 21.582031 51.503906 22.15625 C 51.527344 22.734375 52.015625 23.179688 52.59375 23.152344 C 53.167969 23.128906 53.613281 22.640625 53.589844 22.0625 Z M 58.734375 37.164062 C 59.015625 37.082031 59.171875 36.789062 59.089844 36.511719 C 59.003906 36.230469 58.714844 36.074219 58.433594 36.15625 C 56.796875 36.644531 55.289062 34.996094 55.273438 34.980469 C 55.082031 34.765625 54.746094 34.746094 54.53125 34.9375 C 54.316406 35.132812 54.296875 35.464844 54.488281 35.679688 C 54.554688 35.757812 55.953125 37.300781 57.796875 37.300781 C 58.097656 37.300781 58.414062 37.261719 58.734375 37.164062 Z M 58.414062 20.371094 C 58.523438 20.691406 61.019531 28.289062 61.265625 29.3125 C 61.335938 29.605469 61.265625 29.878906 61.085938 30.09375 C 61.074219 30.109375 61.070312 30.128906 61.058594 30.144531 C 60.742188 30.476562 60.117188 30.578125 59.476562 30.578125 C 58.847656 30.578125 58.199219 30.480469 57.820312 30.410156 C 57.535156 30.359375 57.347656 30.085938 57.398438 29.800781 C 57.449219 29.515625 57.71875 29.320312 58.011719 29.375 C 58.902344 29.535156 59.878906 29.566406 60.214844 29.453125 C 60.027344 28.753906 59.277344 26.414062 58.601562 24.328125 C 57.984375 22.429688 57.429688 20.734375 57.417969 20.699219 C 57.324219 20.425781 57.476562 20.128906 57.75 20.035156 C 58.027344 19.945312 58.324219 20.09375 58.414062 20.371094" fill="#15253d"/></g></g></svg>